<?xml version="1.0" encoding="utf-8"?>
<!-- Generator: Adobe Illustrator 21.1.0, SVG Export Plug-In . SVG Version: 6.00 Build 0)  -->
<svg version="1.1" id="Layer_1" xmlns="http://www.w3.org/2000/svg" xmlns:xlink="http://www.w3.org/1999/xlink" x="0px" y="0px"
	 viewBox="0 0 6 10" enable-background="new 0 0 6 10" xml:space="preserve">
<title>carat</title>
<path fill="#E3008C" d="M5.1,1.4L1.6,4.9l3.5,3.5c0.1,0.1,0.1,0.3,0,0.4l0,0L4.7,9.2c-0.1,0.1-0.3,0.1-0.4,0l0,0L0.1,5
	C0,4.9,0,4.7,0.1,4.6l0,0l4.1-4.1c0.1-0.1,0.3-0.1,0.4,0l0,0L5.1,1c0,0,0.1,0.1,0.1,0.2C5.2,1.3,5.2,1.3,5.1,1.4z"/>
</svg>
